<svg width="18" height="19" viewBox="0 0 18 19" fill="none" xmlns="http://www.w3.org/2000/svg">
<path d="M6.54297 15.8423C6.38802 15.8423 6.26351 15.798 6.16943 15.7095C6.07536 15.6209 6.02555 15.502 6.02002 15.3525L5.771 6.479C5.76546 6.33512 5.80973 6.21891 5.90381 6.13037C6.00342 6.0363 6.1307 5.98926 6.28564 5.98926C6.43506 5.98926 6.5568 6.03353 6.65088 6.12207C6.75049 6.21061 6.80029 6.32682 6.80029 6.4707L7.05762 15.3525C7.05762 15.4964 7.01058 15.6154 6.9165 15.7095C6.82243 15.798 6.69792 15.8423 6.54297 15.8423ZM9 15.8423C8.84505 15.8423 8.71777 15.798 8.61816 15.7095C8.51855 15.6154 8.46875 15.4964 8.46875 15.3525V6.479C8.46875 6.33512 8.51855 6.21891 8.61816 6.13037C8.71777 6.0363 8.84505 5.98926 9 5.98926C9.16048 5.98926 9.29053 6.0363 9.39014 6.13037C9.48975 6.21891 9.53955 6.33512 9.53955 6.479V15.3525C9.53955 15.4964 9.48975 15.6154 9.39014 15.7095C9.29053 15.798 9.16048 15.8423 9 15.8423ZM11.4653 15.8423C11.3049 15.8423 11.1776 15.798 11.0835 15.7095C10.9894 15.6154 10.9451 15.4964 10.9507 15.3525L11.1997 6.479C11.2052 6.32959 11.255 6.21061 11.3491 6.12207C11.4432 6.03353 11.5649 5.98926 11.7144 5.98926C11.8748 5.98926 12.0021 6.0363 12.0962 6.13037C12.1903 6.21891 12.2345 6.33512 12.229 6.479L11.98 15.3525C11.9744 15.502 11.9246 15.6209 11.8306 15.7095C11.7365 15.798 11.6147 15.8423 11.4653 15.8423ZM5.35596 3.82275V1.96338C5.35596 1.36572 5.53857 0.895345 5.90381 0.552246C6.27458 0.203613 6.77816 0.0292969 7.41455 0.0292969H10.5688C11.2052 0.0292969 11.7061 0.203613 12.0713 0.552246C12.4421 0.895345 12.6274 1.36572 12.6274 1.96338V3.82275H11.3076V2.04639C11.3076 1.81396 11.2301 1.62581 11.0752 1.48193C10.9258 1.33805 10.7266 1.26611 10.4775 1.26611H7.50586C7.25684 1.26611 7.05485 1.33805 6.8999 1.48193C6.75049 1.62581 6.67578 1.81396 6.67578 2.04639V3.82275H5.35596ZM1.5874 4.48682C1.42139 4.48682 1.27474 4.42594 1.14746 4.3042C1.02572 4.17692 0.964844 4.02751 0.964844 3.85596C0.964844 3.68994 1.02572 3.54606 1.14746 3.42432C1.27474 3.29704 1.42139 3.2334 1.5874 3.2334H16.4209C16.5869 3.2334 16.7308 3.29427 16.8525 3.41602C16.9743 3.53776 17.0352 3.68441 17.0352 3.85596C17.0352 4.02751 16.9743 4.17692 16.8525 4.3042C16.7363 4.42594 16.5924 4.48682 16.4209 4.48682H1.5874ZM5.19824 18.5151C4.60059 18.5151 4.11637 18.3381 3.74561 17.9839C3.38037 17.6353 3.18392 17.1621 3.15625 16.5645L2.56689 4.3291H3.87012L4.45947 16.415C4.47054 16.6585 4.55632 16.8605 4.7168 17.021C4.87728 17.1815 5.0765 17.2617 5.31445 17.2617H12.6772C12.9207 17.2617 13.1227 17.1815 13.2832 17.021C13.4437 16.866 13.5295 16.6641 13.5405 16.415L14.0967 4.3291H15.4331L14.8521 16.5562C14.8244 17.1538 14.6252 17.6297 14.2544 17.9839C13.8836 18.3381 13.4022 18.5151 12.8101 18.5151H5.19824Z" fill="#9A031E" fill-opacity="0.7"/>
</svg>
