<svg width="24" height="22" viewBox="0 0 24 22" fill="none" xmlns="http://www.w3.org/2000/svg">
<path d="M17.2707 2.2732C17.5381 2.02806 17.8555 1.83361 18.2049 1.70095C18.5542 1.56828 18.9287 1.5 19.3068 1.5C19.685 1.5 20.0594 1.56828 20.4087 1.70095C20.7581 1.83361 21.0755 2.02806 21.3429 2.2732C21.6103 2.51833 21.8224 2.80935 21.9671 3.12963C22.1118 3.44992 22.1863 3.79319 22.1863 4.13987C22.1863 4.48654 22.1118 4.82981 21.9671 5.1501C21.8224 5.47038 21.6103 5.7614 21.3429 6.00653L7.59926 18.6065L2 20.0065L3.52707 14.8732L17.2707 2.2732Z" stroke="#F5F1ED" stroke-opacity="0.7" stroke-width="2.1" stroke-linecap="round" stroke-linejoin="round"/>
</svg>
